# This file uses centimeters as units for non-parametric coordinates.

mtllib Light.mtl
g default
v -3.940260 0.371575 33.054600
v -4.086380 -6.569427 33.691101
v -4.086380 -6.569427 32.466301
v -3.940260 0.371575 32.054001
v -2.670420 0.364403 33.000801
v -2.435590 -6.578756 32.464500
v -2.435590 -6.578756 33.629700
v -2.670420 0.364403 32.047302
v -3.663780 0.945413 33.892204
v -3.200660 -6.538007 34.187302
v -4.086380 -6.569427 33.691101
v -3.940260 0.371575 33.054600
v -2.670420 0.364403 32.047302
v -3.059900 -6.538007 31.913502
v -2.435590 -6.578756 32.464500
v -4.086380 -6.569427 32.466301
v -3.059900 -6.538007 31.913502
v -3.940260 0.371575 32.054001
v -3.047450 0.527260 32.060303
v -3.663780 0.945413 33.892204
v -2.435590 -6.578756 33.629700
v -3.200660 -6.538007 34.187302
v -2.670420 0.364403 33.000801
v 2.459490 -0.884007 40.224400
v 0.850463 -5.587017 39.655800
v 0.105224 -5.661748 39.401703
v 1.936510 -0.595968 40.022701
v 1.936510 -0.595968 40.022701
v 0.105224 -5.661748 39.401703
v 0.338439 -5.815878 38.833099
v 2.048370 -0.821038 39.571400
v 2.048370 -0.821038 39.571400
v 0.338439 -5.815878 38.833099
v 1.773330 -1.197428 38.957100
v 0.946640 -6.039778 38.059002
v -7.841130 -1.031887 32.971302
v -6.840060 -6.514047 33.022602
v -6.956300 -6.532256 34.514500
v -7.798310 -1.248636 33.949100
v -8.222010 -1.547276 34.340103
v -8.002970 -6.582677 34.715500
v -8.385020 -1.657737 33.563301
v -8.315440 -6.574786 33.919903
v -7.783090 -6.561256 32.851200
v -8.210760 -1.293906 32.859203
v -7.841130 -1.031887 32.971302
v -6.840060 -6.514047 33.022602
v 0.850463 -5.587017 39.655800
v 2.459490 -0.884007 40.224400
v 3.067190 -1.286537 40.160301
v 1.932330 -5.605947 39.594501
v 1.947550 -5.924268 38.611103
v 3.135100 -1.513638 39.751701
v 1.305830 -6.581804 25.153702
v 2.511920 -1.567836 25.653603
v 1.997430 -1.224505 25.285301
v 2.388240 -1.484835 26.319500
v 1.100280 -6.582286 26.022003
v 1.584370 -0.948756 26.409100
v -0.233102 -6.589306 26.151703
v 1.105480 -0.629365 25.926102
v -1.027440 -6.593466 25.525902
v -0.615935 -6.591814 24.947403
v 1.353360 -0.795125 25.479603
v 0.492894 -6.585826 24.710800
v 0.509932 -6.385956 24.711002
v 0.477351 -6.424854 24.710701
v 0.364897 -6.586506 24.709900
v 0.509932 -6.385956 24.711002
v 1.997430 -1.224505 25.285301
v -8.717100 0.361153 33.602100
v -8.385020 -1.657737 33.563301
v -8.456830 0.384498 34.369602
v -8.456830 0.384498 34.369602
v -7.798310 -1.248636 33.949100
v -8.007700 0.426445 33.982300
v -8.222010 -1.547276 34.340103
v -8.324160 0.600671 32.904205
v -8.210760 -1.293906 32.859203
v -8.385020 -1.657737 33.563301
v -8.717100 0.361153 33.602100
v 2.730040 -0.484797 40.092400
v 2.459490 -0.884007 40.224400
v 3.276090 -0.887317 40.043602
v 3.276090 -0.887317 40.043602
v 3.135100 -1.513638 39.751701
v 3.396580 -1.114418 39.603901
v 1.773330 -1.197428 38.957100
v 2.043900 -0.798208 38.825100
v 2.048370 -0.821038 39.571400
v 2.318940 -0.421837 39.439400
v 1.936510 -0.595968 40.022701
v 2.207090 -0.196758 39.890701
v 2.459490 -0.884007 40.224400
v 2.730040 -0.484797 40.092400
v 3.067190 -1.286537 40.160301
v 1.717550 -0.131155 26.446800
v 1.584370 -0.948756 26.409100
v 2.388240 -1.484835 26.319500
v 2.660140 -0.343555 26.372204
v 2.511920 -1.567836 25.653603
v 2.805340 -0.376735 25.712303
v 1.997430 -1.224505 25.285301
v 2.201990 -0.240576 25.335903
v 1.353360 -0.795125 25.479603
v 1.446820 -0.070536 25.516300
v 1.105480 -0.629365 25.926102
v 1.156000 -0.004616 25.956303
v 1.584370 -0.948756 26.409100
v 1.717550 -0.131155 26.446800
v -3.944180 2.171577 33.079102
v -3.940260 0.371575 33.054600
v -3.663780 0.945413 33.892204
v -3.309750 2.745414 33.904503
v -2.670420 0.364403 33.000801
v -2.674340 2.164407 33.026901
v -2.670420 0.364403 32.047302
v -2.674330 2.164407 32.085503
v -3.047450 0.527260 32.060303
v -3.309750 2.745414 32.098701
v -3.940260 0.371575 32.054001
v -3.944180 2.171577 32.091503
v -3.940260 0.371575 33.054600
v -3.944180 2.171577 33.079102
v -8.210760 -1.293906 32.859203
v -8.324160 0.600671 32.904205
v -7.940090 0.636773 33.013802
v -7.841130 -1.031887 32.971302
v -8.007700 0.426445 33.982300
v -7.798310 -1.248636 33.949100
v 3.135100 -2.877629 39.751701
v 0.946640 -7.403769 38.059002
v 1.947550 -7.288259 38.611103
v 1.773330 -2.561419 38.957100
vt -0.831136 -0.950000
vt -0.365493 -0.950000
vt -0.361052 0.000000
vt -0.865229 0.000000
vt 0.495173 -0.950000
vt 0.890214 -0.950000
vt 0.443049 0.000000
vt 0.904990 0.000000
vt 1.432890 -0.950000
vt 1.735880 -0.950000
vt 1.701790 0.000000
vt 1.387790 0.000000
vt -0.365493 -0.950000
vt -0.365493 -0.950000
vt -0.361052 0.000000
vt -0.008487 0.000000
vt -0.012826 -0.950000
vt 0.495173 -0.950000
vt 0.443049 0.000000
vt 0.890214 -0.950000
vt 1.432890 -0.950000
vt 0.904990 0.000000
vt 1.387790 0.000000
vt 1.432890 -0.950000
vt 1.735880 -0.950000
vt 1.701790 0.000000
vt 1.387790 0.000000
vt -0.831136 -0.950000
vt -0.365493 -0.950000
vt -0.361052 0.000000
vt -0.865229 0.000000
vt 0.443049 0.000000
vt 0.890214 -0.950000
vt 0.904990 0.000000
vt 0.890214 -0.950000
vt 1.319180 -0.950000
vt 1.968080 -0.950000
vt 1.968930 0.000000
vt 1.390670 0.000000
vt 0.696695 0.000000
vt 0.698416 -0.950000
vt 0.107026 0.000000
vt 0.097607 -0.950000
vt -0.504423 -0.950000
vt -0.525370 0.000000
vt -1.134170 0.000000
vt -1.135020 -0.950000
vt -0.008487 0.000000
vt -0.361052 0.000000
vt -0.365493 -0.950000
vt -0.012826 -0.950000
vt 0.495173 -0.950000
vt 0.443049 0.000000
vt 1.701790 0.000000
vt 1.387790 0.000000
vt 1.432890 -0.950000
vt 0.904990 0.000000
vt 0.890214 -0.950000
vt 0.443049 0.000000
vt 0.495173 -0.950000
vt -0.008487 0.000000
vt -0.012826 -0.950000
vt -0.365493 -0.950000
vt -0.361052 0.000000
vt 1.721460 -0.950000
vt 1.734610 -0.914549
vt -0.818052 -0.923559
vt -0.793049 -0.950000
vt -0.865229 0.000000
vt -0.832408 -0.914549
vt -0.053492 -0.365090
vt 0.069626 -0.369233
vt 0.123381 -0.575510
vt 0.006241 -0.602828
vt -0.103132 -0.634910
vt -0.309106 -0.386259
vt -0.187809 -0.366275
vt 0.896868 -0.634910
vt 0.487414 -0.607059
vt 0.511607 -0.373515
vt 0.690894 -0.386259
vt 0.122935 -0.562376
vt -0.022937 -0.526381
vt -0.007018 -0.367663
vt 0.127480 -0.412462
vt 0.204754 -0.621416
vt 0.141561 -0.412344
vt 0.235134 -0.463976
vt 0.628200 -0.717725
vt 0.600908 -0.559006
vt 0.764808 -0.565272
vt 0.718429 -0.406556
vt 0.848710 -0.513036
vt 0.834789 -0.354315
vt 0.992982 -0.367663
vt 0.977063 -0.526381
vt 0.138357 -0.572183
vt -0.080641 -0.527179
vt -0.093837 -0.423658
vt 0.140113 -0.425434
vt 0.290676 -0.581951
vt 0.285178 -0.428530
vt 0.462311 -0.554942
vt 0.462533 -0.429179
vt 0.657105 -0.518384
vt 0.666133 -0.427257
vt 0.760027 -0.502666
vt 0.760577 -0.424883
vt 0.906163 -0.423658
vt 0.913124 -0.527186
vt -0.044047 -0.595295
vt -0.214425 -0.654463
vt -0.191927 -0.434734
vt 0.013953 -0.370867
vt 0.268925 -0.658297
vt 0.229122 -0.434248
vt 0.415852 -0.648968
vt 0.402125 -0.425038
vt 0.463894 -0.629058
vt 0.507181 -0.353199
vt 0.598687 -0.649009
vt 0.615306 -0.425071
vt 0.808073 -0.434734
vt 0.766674 -0.658798
vt 1.148520 -0.759430
vt 1.149750 -0.738050
vt 1.195640 -0.801409
vt 1.188970 -0.814710
vt 1.140610 -0.941972
vt 1.181400 -1.000000
vt 0.890214 -0.950000
vt 1.432890 -0.950000
vt 0.904990 0.000000
vt 1.387790 0.000000
vn -0.999780 0.021000 0.000000
vn -0.999780 0.021000 0.000000
vn -0.999780 0.021000 0.000000
vn -0.999780 0.021000 0.000000
vn -0.999780 0.021000 0.000000
vn -0.999780 0.021000 0.000000
vn 0.999429 0.033801 0.000000
vn 0.999429 0.033801 0.000000
vn 0.999429 0.033801 0.000000
vn 0.999429 0.033801 0.000000
vn 0.999429 0.033801 0.000000
vn 0.999429 0.033801 0.000000
vn -0.535805 0.007500 0.844308
vn -0.488837 0.004100 0.872366
vn -0.928423 0.042301 0.369109
vn -0.928423 0.042301 0.369109
vn -0.957593 0.046200 0.284398
vn -0.535805 0.007500 0.844308
vn 0.660703 -0.022700 -0.750304
vn 0.643198 -0.021500 -0.765398
vn 0.015000 0.018500 -0.999716
vn -0.033299 -0.018500 -0.999274
vn 0.015000 0.018500 -0.999716
vn 0.643198 -0.021500 -0.765398
vn -0.474520 0.019101 -0.880037
vn -0.438516 0.012800 -0.898632
vn -0.033299 -0.018500 -0.999274
vn 0.017401 -0.059604 -0.998070
vn -0.033299 -0.018500 -0.999274
vn -0.438516 0.012800 -0.898632
vn 0.590008 0.068201 0.804511
vn 0.602432 0.070604 0.795042
vn 0.682754 0.086107 0.725557
vn 0.693417 0.088202 0.715118
vn 0.682754 0.086107 0.725557
vn 0.602432 0.070604 0.795042
vn -0.325601 -0.002300 0.945504
vn -0.322309 -0.004200 0.946625
vn -0.351121 0.011701 0.936257
vn -0.351121 0.011701 0.936257
vn -0.353514 0.013101 0.935337
vn -0.325601 -0.002300 0.945504
vn -0.829923 0.352610 -0.432312
vn -0.828254 0.352823 -0.435329
vn -0.851444 0.349718 -0.390820
vn -0.851444 0.349718 -0.390820
vn -0.853874 0.349330 -0.385833
vn -0.829923 0.352610 -0.432312
vn -0.941751 0.287916 0.173809
vn -0.760710 0.252403 -0.598008
vn -0.928215 0.281805 0.242904
vn -0.760710 0.252403 -0.598008
vn -0.941751 0.287916 0.173809
vn -0.727293 0.243198 -0.641794
vn 0.741965 0.165192 0.649769
vn 0.980560 0.179793 0.078597
vn 0.986902 0.161100 0.008500
vn 0.986902 0.161100 0.008500
vn 0.929724 0.182405 0.319908
vn 0.741965 0.165192 0.649769
vn -0.156706 0.152906 0.975737
vn 0.741965 0.165192 0.649769
vn 0.929724 0.182405 0.319908
vn 0.741965 0.165192 0.649769
vn -0.156706 0.152906 0.975737
vn -0.473597 0.060000 0.878695
vn -0.156706 0.152906 0.975737
vn -0.996066 -0.053298 -0.070798
vn -0.473597 0.060000 0.878695
vn -0.999620 -0.015800 -0.022600
vn -0.473597 0.060000 0.878695
vn -0.996066 -0.053298 -0.070798
vn -0.441194 -0.014900 -0.897288
vn -0.999620 -0.015800 -0.022600
vn -0.996066 -0.053298 -0.070798
vn -0.996066 -0.053298 -0.070798
vn -0.213196 -0.015800 -0.976882
vn -0.441194 -0.014900 -0.897288
vn -0.213196 -0.015800 -0.976882
vn 0.260309 0.023701 -0.965234
vn -0.441194 -0.014900 -0.897288
vn 0.177605 0.023201 -0.983828
vn -0.441194 -0.014900 -0.897288
vn 0.260309 0.023701 -0.965234
vn 0.391907 -0.229904 0.890816
vn 0.020500 -0.126900 0.991704
vn 0.049704 -0.141611 0.988674
vn 0.049704 -0.141611 0.988674
vn 0.686013 -0.268805 0.676113
vn 0.391907 -0.229904 0.890816
vn 0.686013 -0.268805 0.676113
vn 0.955764 -0.269818 0.117108
vn 0.391907 -0.229904 0.890816
vn 0.887707 -0.323703 0.327403
vn 0.391907 -0.229904 0.890816
vn 0.955764 -0.269818 0.117108
vn 0.548401 -0.050300 -0.834701
vn 0.903749 -0.178610 -0.389021
vn 0.866625 -0.170805 -0.468814
vn 0.903749 -0.178610 -0.389021
vn 0.547970 -0.184690 0.815855
vn 0.866625 -0.170805 -0.468814
vn 0.596517 -0.192706 0.779122
vn 0.866625 -0.170805 -0.468814
vn 0.547970 -0.184690 0.815855
vn 0.547970 -0.184690 0.815855
vn -0.369009 0.073402 0.926523
vn 0.596517 -0.192706 0.779122
vn -0.351700 0.073800 0.933199
vn 0.596517 -0.192706 0.779122
vn -0.369009 0.073402 0.926523
vn -0.369009 0.073402 0.926523
vn -0.935548 0.320416 0.148608
vn -0.351700 0.073800 0.933199
vn -0.939298 0.329399 0.096000
vn -0.351700 0.073800 0.933199
vn -0.935548 0.320416 0.148608
vn -0.576920 0.267009 -0.771926
vn -0.939298 0.329399 0.096000
vn -0.935548 0.320416 0.148608
vn -0.935548 0.320416 0.148608
vn -0.569017 0.268308 -0.777323
vn -0.576920 0.267009 -0.771926
vn 0.866625 -0.170805 -0.468814
vn 0.478018 -0.040102 -0.877434
vn 0.548401 -0.050300 -0.834701
vn 0.548401 -0.050300 -0.834701
vn 0.478018 -0.040102 -0.877434
vn 0.477001 -0.039800 -0.878001
vn -0.569017 0.268308 -0.777323
vn -0.224412 0.166009 -0.960250
vn -0.576920 0.267009 -0.771926
vn -0.576920 0.267009 -0.771926
vn -0.224412 0.166009 -0.960250
vn -0.232898 0.166798 -0.958090
vn -0.185005 0.161204 -0.969426
vn -0.183394 0.160994 -0.969767
vn -0.569017 0.268308 -0.777323
vn -0.569017 0.268308 -0.777323
vn -0.183394 0.160994 -0.969767
vn -0.224412 0.166009 -0.960250
vn -0.648095 -0.065999 -0.758694
vn -0.648095 -0.065999 -0.758694
vn -0.648095 -0.065999 -0.758694
vn 0.536518 0.112704 -0.836329
vn 0.960815 0.162303 -0.224704
vn 0.945592 0.129899 -0.298298
vn 0.945592 0.129899 -0.298298
vn 0.939186 0.119098 -0.322095
vn 0.536518 0.112704 -0.836329
vn -0.650086 -0.067199 -0.756884
vn 0.536518 0.112704 -0.836329
vn -0.648618 -0.066302 -0.758221
vn 0.935638 0.075403 0.344814
vn 0.962935 0.051302 0.264810
vn 0.879500 0.111300 0.462700
vn 0.879500 0.111300 0.462700
vn 0.844549 0.128908 0.519730
vn 0.935638 0.075403 0.344814
vn -0.659829 0.128006 -0.740433
vn -0.215300 -0.171900 -0.961299
vn -0.213996 -0.171397 -0.961680
vn -0.213996 -0.171397 -0.961680
vn -0.211710 -0.170508 -0.962344
vn -0.659829 0.128006 -0.740433
vn -0.752933 0.581725 0.307713
vn -0.659829 0.128006 -0.740433
vn -0.846028 0.369512 -0.384313
vn -0.846028 0.369512 -0.384313
vn -0.781693 0.586995 0.210698
vn -0.752933 0.581725 0.307713
vn 0.418518 0.022101 0.907939
vn -0.752933 0.581725 0.307713
vn -0.781693 0.586995 0.210698
vn -0.781693 0.586995 0.210698
vn 0.594199 -0.140800 0.791898
vn 0.418518 0.022101 0.907939
vn 0.840909 -0.512305 0.174402
vn 0.418518 0.022101 0.907939
vn 0.594199 -0.140800 0.791898
vn 0.594199 -0.140800 0.791898
vn 0.839314 -0.493108 0.228904
vn 0.840909 -0.512305 0.174402
vn 0.705821 -0.601918 -0.373511
vn 0.840909 -0.512305 0.174402
vn 0.839314 -0.493108 0.228904
vn 0.839314 -0.493108 0.228904
vn 0.705924 -0.601921 -0.373313
vn 0.705821 -0.601918 -0.373511
vn 0.705924 -0.601921 -0.373313
vn 0.134899 -0.392297 -0.909893
vn 0.134899 -0.392297 -0.909893
vn 0.134899 -0.392297 -0.909893
vn 0.705821 -0.601918 -0.373511
vn 0.705924 -0.601921 -0.373313
vn -0.720205 0.201002 -0.664005
vn -0.072500 0.057700 -0.995698
vn -0.068105 0.059905 -0.995878
vn -0.068105 0.059905 -0.995878
vn -0.623514 0.187004 -0.759117
vn -0.720205 0.201002 -0.664005
vn -0.915602 0.205001 0.345901
vn -0.720205 0.201002 -0.664005
vn -0.623514 0.187004 -0.759117
vn -0.623514 0.187004 -0.759117
vn -0.908906 0.197801 0.367102
vn -0.915602 0.205001 0.345901
vn -0.256817 0.013601 0.966364
vn -0.915602 0.205001 0.345901
vn -0.908906 0.197801 0.367102
vn -0.908906 0.197801 0.367102
vn -0.158301 -0.013100 0.987304
vn -0.256817 0.013601 0.966364
vn 0.499028 -0.114806 0.858948
vn -0.256817 0.013601 0.966364
vn -0.158301 -0.013100 0.987304
vn -0.158301 -0.013100 0.987304
vn 0.586820 -0.103103 0.803127
vn 0.499028 -0.114806 0.858948
vn 0.988643 -0.090204 -0.120205
vn 0.499028 -0.114806 0.858948
vn 0.586820 -0.103103 0.803127
vn 0.586820 -0.103103 0.803127
vn 0.986901 -0.093600 -0.131400
vn 0.988643 -0.090204 -0.120205
vn 0.986901 -0.093600 -0.131400
vn 0.647182 -0.070398 -0.759079
vn 0.671511 -0.049901 -0.739312
vn 0.671511 -0.049901 -0.739312
vn 0.988643 -0.090204 -0.120205
vn 0.986901 -0.093600 -0.131400
vn 0.366996 0.053399 -0.928689
vn 0.948273 0.006400 -0.317391
vn 0.875092 -0.112099 -0.470796
vn 0.875092 -0.112099 -0.470796
vn -0.058601 -0.057601 -0.996618
vn 0.366996 0.053399 -0.928689
vn -0.944888 0.037000 -0.325296
vn 0.366996 0.053399 -0.928689
vn -0.058601 -0.057601 -0.996618
vn -0.058601 -0.057601 -0.996618
vn -0.935268 0.003100 -0.353926
vn -0.944888 0.037000 -0.325296
vn -0.794931 -0.014601 0.606524
vn -0.944888 0.037000 -0.325296
vn -0.935268 0.003100 -0.353926
vn -0.935268 0.003100 -0.353926
vn -0.562640 -0.015401 0.826559
vn -0.794931 -0.014601 0.606524
vn 0.010700 -0.019299 0.999757
vn -0.794931 -0.014601 0.606524
vn -0.562640 -0.015401 0.826559
vn -0.562640 -0.015401 0.826559
vn 0.004000 -0.018300 0.999825
vn 0.010700 -0.019299 0.999757
vn 0.741484 -0.010700 0.670885
vn 0.010700 -0.019299 0.999757
vn 0.004000 -0.018300 0.999825
vn 0.004000 -0.018300 0.999825
vn 0.572525 -0.015801 0.819735
vn 0.741484 -0.010700 0.670885
vn 0.572525 -0.015801 0.819735
vn 0.999998 0.002200 0.000000
vn 0.999998 0.002200 0.000000
vn 0.999998 0.002200 0.000000
vn 0.741484 -0.010700 0.670885
vn 0.572525 -0.015801 0.819735
vn -0.795507 -0.061601 0.602805
vn -0.270812 -0.039002 0.961842
vn -0.265217 -0.039903 0.963363
vn -0.795507 -0.061601 0.602805
vn -0.265217 -0.039903 0.963363
vn -0.752037 -0.086404 0.653433
vn -0.995618 -0.079401 -0.049401
vn -0.795507 -0.061601 0.602805
vn -0.752037 -0.086404 0.653433
vn -0.992117 -0.124302 0.015900
vn -0.995618 -0.079401 -0.049401
vn -0.752037 -0.086404 0.653433
vn 0.471789 0.099498 -0.876080
vn 0.482627 0.092305 -0.870948
vn 0.509012 0.074602 -0.857520
vn 0.514920 0.070503 -0.854334
vn 0.509012 0.074602 -0.857520
vn 0.482627 0.092305 -0.870948
s off
g LightShaft
usemtl LIGHT
f 3/1/1 2/2/2 1/3/3
f 1/3/4 4/4/5 3/1/6
f 7/5/7 6/6/8 5/7/9
f 8/8/10 5/7/11 6/6/12
f 11/9/13 10/10/14 9/11/15
f 9/11/16 12/12/17 11/9/18
f 15/13/19 14/14/20 13/15/21
f 19/16/22 13/15/23 14/14/24
f 17/17/25 16/18/26 19/16/27
f 18/19/28 19/16/29 16/18/30
f 22/20/31 21/21/32 20/22/33
f 23/23/34 20/22/35 21/21/36
f 26/24/37 25/25/38 24/26/39
f 24/26/40 27/27/41 26/24/42
f 30/28/43 29/29/44 28/30/45
f 28/30/46 31/31/47 30/28/48
f 34/32/49 33/33/50 32/34/51
f 33/33/52 34/32/53 35/35/54
f 38/36/55 37/37/56 36/38/57
f 36/38/58 39/39/59 38/36/60
f 40/40/61 38/36/62 39/39/63
f 38/36/64 40/40/65 41/41/66
f 40/40/67 42/42/68 41/41/69
f 43/43/70 41/41/71 42/42/72
f 44/44/73 43/43/74 42/42/75
f 42/42/76 45/45/77 44/44/78
f 45/45/79 46/46/80 44/44/81
f 47/47/82 44/44/83 46/46/84
f 50/48/85 49/49/86 48/50/87
f 48/50/88 51/51/89 50/48/90
f 51/51/91 52/52/92 50/48/93
f 53/53/94 50/48/95 52/52/96
f 56/54/97 55/55/98 54/56/99
f 55/55/100 57/57/101 54/56/102
f 58/58/103 54/56/104 57/57/105
f 57/57/106 59/59/107 58/58/108
f 60/60/109 58/58/110 59/59/111
f 59/59/112 61/61/113 60/60/114
f 62/62/115 60/60/116 61/61/117
f 63/63/118 62/62/119 61/61/120
f 61/61/121 64/64/122 63/63/123
f 54/56/124 65/65/125 56/54/126
f 56/54/127 65/65/128 66/66/129
f 64/64/130 67/67/131 63/63/132
f 63/63/133 67/67/134 68/68/135
f 70/69/136 69/70/137 64/64/138
f 64/64/139 69/70/140 67/67/141
f 74/71/142 76/72/143 75/73/144
f 77/74/145 72/75/146 71/76/147
f 71/76/148 73/77/149 77/74/150
f 75/73/151 77/74/152 74/71/153
f 80/78/154 79/79/155 78/80/156
f 78/80/157 81/81/158 80/78/159
f 96/82/160 83/83/161 82/84/162
f 82/84/163 84/85/164 96/82/165
f 86/86/166 96/82/167 85/87/168
f 85/87/169 87/88/170 86/86/171
f 88/89/172 86/86/173 87/88/174
f 87/88/175 89/90/176 88/89/177
f 90/91/178 88/89/179 89/90/180
f 89/90/181 91/92/182 90/91/183
f 92/93/184 90/91/185 91/92/186
f 91/92/187 93/94/188 92/93/189
f 93/94/190 95/95/191 94/96/192
f 94/96/193 92/93/194 93/94/195
f 99/97/196 98/98/197 97/99/198
f 97/99/199 100/100/200 99/97/201
f 101/101/202 99/97/203 100/100/204
f 100/100/205 102/102/206 101/101/207
f 103/103/208 101/101/209 102/102/210
f 102/102/211 104/104/212 103/103/213
f 105/105/214 103/103/215 104/104/216
f 104/104/217 106/106/218 105/105/219
f 107/107/220 105/105/221 106/106/222
f 106/106/223 108/108/224 107/107/225
f 108/108/226 110/109/227 109/110/228
f 109/110/229 107/107/230 108/108/231
f 113/111/232 112/112/233 111/113/234
f 111/113/235 114/114/236 113/111/237
f 115/115/238 113/111/239 114/114/240
f 114/114/241 116/116/242 115/115/243
f 117/117/244 115/115/245 116/116/246
f 116/116/247 118/118/248 117/117/249
f 119/119/250 117/117/251 118/118/252
f 118/118/253 120/120/254 119/119/255
f 121/121/256 119/119/257 120/120/258
f 120/120/259 122/122/260 121/121/261
f 122/122/262 124/123/263 123/124/264
f 123/124/265 121/121/266 122/122/267
f 127/125/268 126/126/269 125/127/270
f 127/125/271 125/127/272 128/128/273
f 129/129/274 127/125/275 128/128/276
f 130/130/277 129/129/278 128/128/279
f 133/131/280 132/132/281 131/133/282
f 134/134/283 131/133/284 132/132/285
